<svg width="769" height="615" viewBox="0 0 769 615" fill="none" xmlns="http://www.w3.org/2000/svg">
<g filter="url(#filter0_dii_5255_27791)">
<path d="M426.453 268.315C432.558 267.629 434.364 267.629 440.531 268.378C447.508 269.189 456.603 272.245 463.081 275.863C469.248 279.357 479.339 289.275 482.765 295.201C484.82 298.757 485.506 299.443 487.624 300.066C488.995 300.503 492.234 301.937 494.85 303.31C497.465 304.619 499.708 305.743 499.833 305.743C499.896 305.741 500.893 303.995 501.951 301.812C504.879 296.074 507.184 292.892 512.416 287.403C517.898 281.727 522.445 278.484 529.608 275.115C537.955 271.185 544.184 269.938 554.836 270C565.425 270.062 572.901 271.621 581.435 275.738C596.571 283.036 606.102 293.516 612.02 309.423L612.885 311.764C613.396 313.149 614.557 314.194 615.988 314.559L620.803 315.786C637.621 320.028 649.956 326.764 659.798 337.057C669.889 347.536 675.682 359.389 678.548 375.046C679.981 382.906 679.981 400.06 678.548 410.227C676.492 424.824 672.318 444.037 669.079 453.519C664.547 466.712 657.384 477.152 648.294 484.155C647.151 485.036 646.417 486.371 646.468 487.813C646.71 494.63 648.35 501.697 649.577 509.367C650.025 512.165 647.83 514.641 644.996 514.642C642.054 514.642 639.839 511.993 640.319 509.091C641.027 504.816 641.765 499.653 642.133 494.147C642.314 491.449 639.408 489.695 636.901 490.709C635.777 491.163 634.91 492.118 634.702 493.313C632.164 507.894 636.292 525.817 639.644 542.425C640.536 546.847 637.135 550.922 632.624 550.922C627.708 550.922 624.215 546.125 625.358 541.344C628.568 527.927 629.967 512.587 627.777 496.658C627.536 494.9 625.867 493.737 624.109 493.973C622.418 494.2 621.129 495.66 621.26 497.361C621.654 502.435 622.372 507.311 623.367 513.161C624.154 517.785 620.618 522.019 615.928 522.019C611.584 522.019 608.139 518.36 608.399 514.024L609.314 498.813C609.462 496.36 607.606 494.258 605.171 493.931C592.803 492.269 581.273 487.485 573.773 480.278L573.451 479.972C572.137 478.722 570.201 478.386 568.542 479.118L567.046 479.779C559.82 483.085 553.155 484.395 543.624 484.333C536.647 484.333 534.155 484.022 529.172 482.712C522.071 480.841 514.409 477.347 508.679 473.417L506.605 471.969C505.337 471.085 503.703 470.914 502.281 471.518L500.892 472.107C499.223 472.789 497.394 473.423 495.435 474.009C493.535 474.578 492.154 476.258 492.11 478.241C491.891 488.28 492.449 498.956 493.298 506.394C493.625 509.261 491.249 511.826 488.377 511.542C485.992 511.306 484.255 509.171 484.522 506.79C485.684 496.446 486.844 487.595 486.33 478.894C486.246 477.478 484.942 476.491 483.545 476.732C482.343 476.939 481.442 477.999 481.524 479.216C481.67 481.374 481.914 483.439 482.199 485.396C482.538 487.72 480.758 489.834 478.41 489.81C476.154 489.786 474.437 487.784 474.661 485.538C474.746 484.689 474.818 483.864 474.878 483.061C475.081 480.348 472.721 478.201 470.009 478.422C455.729 479.588 440.723 478.986 430.315 476.286C420.411 473.729 409.759 468.115 402.845 461.877L401.842 460.973C400.62 459.872 398.785 459.806 397.488 460.816C396.305 461.814 393.999 463.686 392.38 464.996C388.393 468.24 378.053 473.167 372.011 474.789C365.595 476.536 353.884 477.097 347.779 476.037C345.35 475.6 340.989 474.478 338.062 473.479C332.891 471.795 332.704 471.796 328.718 472.669C325.387 473.398 320.125 473.875 315.051 474.003C312.453 474.069 310.333 476.218 310.535 478.808C310.781 481.972 311.175 485.284 311.87 489.078C312.277 491.298 310.73 493.433 308.482 493.641C306.144 493.857 304.198 491.895 304.347 489.552C304.621 485.222 304.653 480.396 303.868 475.265C303.705 474.194 302.852 473.377 301.786 473.189C300.17 472.905 298.661 474.139 298.696 475.779C298.955 487.716 299.725 500.599 300.966 512.611C301.272 515.572 298.965 518.171 295.988 518.171C292.898 518.171 290.526 515.379 290.831 512.304C291.854 502.002 292.236 485.625 290.853 473.28C290.66 471.553 289.432 470.141 287.787 469.581C273.168 464.607 259.688 456.158 250.418 445.783L249.682 444.954C248.127 443.203 245.488 442.94 243.619 444.351L242.133 445.472C233.91 451.522 220.892 457.386 210.987 459.444C209.866 459.694 209.118 460.442 208.62 461.877C207.187 465.869 200.522 475.164 195.975 479.468C188.001 487.078 180.713 491.132 169.875 494.002C169.793 494.024 169.711 494.045 169.627 494.066C168.351 494.392 167.675 495.873 167.806 497.184L170.366 522.78C170.892 528.041 166.761 532.605 161.474 532.605C155.916 532.605 151.736 527.588 152.646 522.105C154.078 513.485 154.865 506.855 154.823 498.108C154.818 496.927 153.974 495.723 152.793 495.708C151.65 495.694 150.518 495.657 149.412 495.597C146.991 495.465 144.867 497.354 144.908 499.778C145.251 519.833 146.366 540.573 148.799 555.235C149.77 561.088 145.384 566.93 139.451 566.93C134.007 566.929 129.841 561.998 130.433 556.586C132.242 540.025 133.277 515.073 132.216 494.293C132.139 492.792 131.149 491.487 129.767 490.897C127.091 489.755 123.995 491.626 124.188 494.53C124.649 501.451 125.784 508.037 126.756 513.272C127.293 516.165 125.086 518.811 122.144 518.811C119.31 518.811 117.116 516.336 117.341 513.512C118.065 504.415 117.959 495.096 117.651 486.089C117.604 484.726 116.928 483.468 115.862 482.617C105.573 474.396 98.1681 462.786 94.4395 448.59C92.9444 442.913 89.9539 422.266 88.459 407.42C87.0886 393.571 86.8403 351.529 88.1484 343.17C90.5155 327.763 95.6229 317.096 105.153 307.614C117.051 295.825 133.434 289.15 156.17 286.717C166.012 285.656 188.125 285.532 197.345 286.405C219.334 288.651 235.779 295.638 250.23 308.737L251.259 309.672C252.972 311.229 255.587 311.229 257.3 309.672L258.328 308.737C270.475 297.759 286.297 289.898 301.87 287.341C309.532 286.031 325.417 286.343 331.521 287.902C335.009 288.776 335.508 288.776 339.245 287.591C353.385 283.224 368.024 283.599 381.417 288.651L384.533 289.801C386.23 290.427 388.137 289.974 389.371 288.651L391.757 286.094C397.176 280.293 402.284 276.549 409.198 273.368C415.178 270.624 420.66 269.002 426.453 268.315ZM325.292 373.985C322.427 372.8 320.744 372.862 318.19 374.234C314.017 376.48 312.585 381.783 315.201 385.65C317.132 388.519 319.063 389.455 322.676 389.144C325.043 388.956 326.164 388.457 327.597 386.96C331.459 383.092 330.213 376.044 325.292 373.985ZM185.724 366.287C182.858 365.102 181.176 365.164 178.622 366.536C174.449 368.782 173.017 374.084 175.633 377.951C177.564 380.821 179.495 381.756 183.107 381.444C185.474 381.257 186.596 380.759 188.028 379.262C191.751 375.534 190.21 368.608 185.724 366.287ZM386.261 37.623C391.157 36.7279 403.952 36.5695 409.954 37.3066C423.696 39.0441 435.12 44.5733 445.124 54.4189C448.125 57.3146 451.758 61.5788 453.285 63.8955C454.812 66.2114 456.127 68.2119 456.233 68.3183C456.339 68.4236 457.919 67.5284 459.762 66.3701C476.978 55.5242 499.144 49.733 519.625 50.7334C548.109 52.2076 570.485 61.8425 590.703 81.3232L593.239 83.7863C594.915 85.4149 597.574 85.4432 599.285 83.8505C607.604 76.111 619.766 70.1083 631.191 68.1601C648.25 65.2643 674.998 69.7928 694.373 78.9541C706.904 84.8508 715.381 91.8528 721.962 101.751C727.332 109.806 729.754 117.915 730.07 129.445C730.386 138.817 729.49 144.399 726.595 151.928C721.803 164.3 710.642 175.357 698.427 179.779C695.32 180.885 695.215 180.991 694.794 183.202C690.602 205.48 684.802 222.33 676.91 234.758C676.48 235.436 676.225 236.211 676.184 237.012C675.607 248.337 674.825 257.385 675.955 270.477C676.223 273.583 673.815 276.309 670.698 276.31C667.462 276.31 665.027 273.389 665.506 270.188C666.253 265.204 666.838 259.735 666.847 253.883C666.852 251.291 663.748 250.037 661.677 251.596C660.832 252.233 660.304 253.212 660.289 254.269C660.041 271.051 660.434 283.998 662.476 303.065C662.943 307.43 659.546 311.272 655.156 311.272C650.597 311.272 647.109 307.147 647.467 302.602C648.334 291.572 647.995 277.586 646.899 265.261C646.644 262.399 643.757 260.583 640.965 261.261C621.351 266.022 598.896 261.201 582.7 247.33C581.069 245.909 579.596 244.752 579.437 244.751C579.279 244.751 577.172 246.014 574.803 247.541C558.06 258.282 541.264 263.653 519.625 265.021C509.306 265.706 493.774 263.494 482.349 259.703C471.871 256.281 457.866 248.805 450.126 242.592C448.589 241.396 447.086 240.2 446.405 239.623C446.179 239.431 445.935 239.211 445.643 239.264C445.053 239.373 444.057 240.083 442.439 241.539C423.064 259.23 395.053 262.863 370.308 250.806C364.99 248.226 357.145 243.013 355.46 240.907C354.828 240.17 354.249 240.433 349.932 243.644C338.138 252.384 326.871 257.756 312.972 261.336C290.543 267.075 268.797 266.022 247.579 258.124C241.103 255.702 231.31 250.806 225.992 247.226C223.729 245.699 221.624 244.33 221.307 244.119C220.991 243.908 218.99 245.067 216.831 246.646C199.878 259.282 175.605 266.338 149.122 266.338C141.724 266.338 134.696 265.757 127.957 264.571C124.914 264.036 122.097 266.505 122.409 269.579L123.096 276.337C123.513 280.442 120.29 284.008 116.164 284.008C111.824 284.008 108.566 280.084 109.285 275.804C110.095 270.987 110.637 266.972 110.856 262.538C110.928 261.066 110.01 259.744 108.636 259.212C106.273 258.297 103.662 260.046 103.771 262.578C104.232 273.34 105.053 283.611 106.383 291.574C107.144 296.13 103.731 300.687 99.1123 300.687C94.8778 300.687 91.6396 296.85 92.1035 292.641C93.2557 282.19 94.0023 267.43 93.7759 253.667C93.7591 252.648 93.2172 251.724 92.3437 251.199C90.3905 250.025 87.8331 251.326 87.8104 253.605C87.7653 258.14 87.9336 262.262 88.2842 265.787C88.5314 268.274 86.632 270.535 84.1328 270.535C81.7273 270.535 79.8698 268.432 80.1865 266.048C81.104 259.14 82.1293 251.584 81.7834 244.588C81.7659 244.235 81.5897 243.911 81.3086 243.697C75.7803 239.485 66.2501 229.85 62.0381 224.217C48.7702 206.421 42.4521 186.045 42.3994 161.036C42.3994 141.397 46.0847 124.601 53.9297 108.596C68.0927 79.7958 92.1547 61.1055 123.692 54.4189C136.908 51.6285 153.65 50.7325 167.655 52.0488C186.925 53.8916 203.406 60.4731 214.094 70.6347L215.087 71.5859C216.671 73.1033 219.119 73.2543 220.878 71.943L220.938 71.8984C232.731 62.9478 248.316 55.8926 262.953 52.8388C289.752 47.3105 318.816 52.1546 340.561 65.8964C342.561 67.2126 344.035 67.8441 344.141 67.4755C344.247 67.1587 345.51 65.2109 346.983 63.1582C356.25 49.943 370.94 40.3609 386.261 37.623ZM518.467 152.813C516.045 151.339 512.412 151.445 510.096 152.972C503.83 157.131 506.252 166.766 513.781 167.397C522.047 168.134 525.522 157.131 518.467 152.813ZM285.583 151.53C281.845 151.214 279.475 152.478 277.843 155.637C275.789 159.533 276.895 163.271 280.896 165.956C281.844 166.64 283.424 167.167 284.425 167.167C291.585 167.167 295.271 159.059 290.479 153.899C288.637 151.951 288.11 151.688 285.583 151.53Z" fill="url(#paint0_linear_5255_27791)"/>
</g>
<path d="M137.392 555.205C136.109 548.469 136.278 523.662 136.064 521.203C134.781 523.983 134.697 552.767 134.184 557.129C133.543 562.583 139.995 564.363 141.562 561.62C142.845 559.375 138.484 560.94 137.392 555.205Z" fill="url(#paint1_linear_5255_27791)"/>
<path d="M98.2583 289.607C96.9752 282.871 98.4721 263.838 98.2583 261.379C96.9752 264.159 95.5638 287.169 95.0506 291.531C94.4091 296.984 100.861 298.765 102.428 296.022C103.711 293.777 99.3506 295.342 98.2583 289.607Z" fill="url(#paint2_linear_5255_27791)"/>
<path d="M108.736 315.299C122.203 298.432 150.82 296.022 150.82 296.022C119.055 311.421 109.384 323.537 98.2136 352.157C98.2136 352.157 95.2693 332.167 108.736 315.299Z" fill="url(#paint3_linear_5255_27791)"/>
<path d="M451.886 278.587C468.016 283.882 477.648 304.313 477.648 304.313C457.577 285.128 446.103 282.346 421.942 281.969C421.942 281.969 435.757 273.292 451.886 278.587Z" fill="url(#paint4_linear_5255_27791)"/>
<path d="M418.946 45.5657C435.075 50.861 444.707 71.2919 444.707 71.2919C424.637 52.1069 413.163 49.3244 389.002 48.9479C389.002 48.9479 402.816 40.2705 418.946 45.5657Z" fill="url(#paint5_linear_5255_27791)"/>
<path d="M559.719 274.474C576.656 275.632 594.444 292.494 594.444 292.494C570.265 278.846 553.158 276.961 529.649 282.55C529.649 282.55 542.782 273.317 559.719 274.474Z" fill="url(#paint6_linear_5255_27791)"/>
<path d="M719.039 151.672C711.208 166.735 688.641 176.299 688.641 176.299C710.816 159.592 719.383 144.665 723.658 120.882C723.658 120.882 726.871 136.61 719.039 151.672Z" fill="url(#paint7_linear_5255_27791)"/>
<path d="M191.878 474.371C205.03 458.653 204.388 455.873 206.313 451.596C192.172 470.308 174.355 479.346 156.914 483.673C156.914 483.673 178.727 490.088 191.878 474.371Z" fill="url(#paint8_linear_5255_27791)"/>
<path d="M666.666 352.904C653.871 336.895 651.019 336.972 647.209 334.237C662.743 351.81 668.065 371.066 668.845 389.018C668.845 389.018 679.461 368.913 666.666 352.904Z" fill="url(#paint9_linear_5255_27791)"/>
<path d="M523.569 474.883C504.768 466.725 510.832 465.783 507.195 462.822C528.222 473.214 549.007 476.905 566.538 472.958C566.538 472.958 542.37 483.041 523.569 474.883Z" fill="url(#paint10_linear_5255_27791)"/>
<path d="M263.731 317.193C265.737 313.772 269.505 301.475 293.883 294.098C315.641 287.513 330.244 293.704 333.133 295.111C333.348 295.191 333.524 295.281 333.659 295.381C333.659 295.381 333.481 295.28 333.133 295.111C326.804 292.745 286.677 298.667 263.731 317.193Z" fill="url(#paint11_linear_5255_27791)"/>
<path d="M225.568 231.735C227.666 235.1 231.762 247.292 256.33 254.012C278.257 260.01 292.689 253.429 295.538 251.944C295.751 251.858 295.925 251.764 296.057 251.661C296.057 251.661 295.882 251.766 295.538 251.944C289.276 254.48 249.004 249.637 225.568 231.735Z" fill="url(#paint12_linear_5255_27791)"/>
<path d="M109.158 71.7977C105.54 71.9566 93.8477 69.9122 78.4109 85.4825C64.6337 99.3789 64.2378 112.939 64.3119 115.694C64.2971 115.889 64.3051 116.058 64.3365 116.2C64.3365 116.2 64.3208 116.025 64.3119 115.694C64.7477 109.944 84.9669 81.8329 109.158 71.7977Z" fill="url(#paint13_linear_5255_27791)"/>
<path d="M587.903 98.4352C586.898 94.9565 586.137 83.1108 567.374 71.7673C550.628 61.6432 537.355 64.4462 534.695 65.1659C534.501 65.1974 534.338 65.245 534.208 65.309C534.208 65.309 534.374 65.2526 534.695 65.1659C540.386 64.2378 572.462 77.2814 587.903 98.4352Z" fill="url(#paint14_linear_5255_27791)"/>
<path d="M342.533 87.0047C341.177 83.6471 339.207 71.9416 319.382 62.578C301.688 54.221 288.771 58.3677 286.199 59.3559C286.01 59.4071 285.852 59.4711 285.729 59.5481C285.729 59.5481 285.889 59.4749 286.199 59.3559C291.765 57.8502 325.008 67.5424 342.533 87.0047Z" fill="url(#paint15_linear_5255_27791)"/>
<path d="M614.332 509.976C613.049 503.24 613.584 496.076 613.37 493.617C612.087 496.397 611.638 507.538 611.125 511.901C610.483 517.354 616.935 519.135 618.503 516.392C619.786 514.146 615.425 515.711 614.332 509.976Z" fill="url(#paint16_linear_5255_27791)"/>
<path d="M653.832 299.551C652.549 292.814 651.755 274.424 651.542 271.964C650.258 274.744 651.137 297.113 650.624 301.475C649.982 306.928 656.434 308.709 658.002 305.966C659.285 303.721 654.924 305.286 653.832 299.551Z" fill="url(#paint17_linear_5255_27791)"/>
<path d="M125.703 86.4245C153.909 79.1838 176.472 83.7811 187.544 89.3611C197.698 94.4786 202.172 104.194 203.531 115.359C204.52 123.478 203.582 130.151 200.511 135.434C197.41 140.769 192.532 144.005 187.028 146.004C180.886 148.234 177.186 148.734 173.05 148.64C169.002 148.547 165.942 148.035 158.983 148.288C155.483 148.415 152.785 151.629 152.737 156.329C152.715 158.518 153.365 160.252 154.248 161.257C154.971 162.079 156.172 162.811 158.541 162.523C164.131 161.842 173.967 160.63 183.392 161.415C192.466 162.171 203.206 164.943 208.101 174.13C213.009 183.342 215.371 192.647 213.818 201.468C212.239 210.431 206.761 218.089 197.619 224.142C188.534 230.157 174.485 234.906 159.284 236.324C144.038 237.746 127.09 235.869 112.36 228.021C97.942 220.339 87.4556 210.12 80.9628 197.35C74.4879 184.616 72.1684 169.71 73.4502 152.923C75.2843 128.905 89.4094 95.7413 125.703 86.4245Z" fill="white" stroke="black" stroke-width="9.62311"/>
<path d="M285.556 81.9761C305.794 81.9761 323.734 89.4083 338.845 103.573L338.855 103.583L338.866 103.593L340.222 104.879L340.267 104.922C355.024 119.294 362.312 137.628 362.312 158.871C362.311 174.073 358.327 188.06 350.167 200.398L350.111 200.487L350.051 200.573L350.034 200.598L350.033 200.597C342.318 212.042 332.615 220.957 320.866 226.868L320.739 226.944L320.544 227.032C309.379 232.507 297.592 235.304 285.326 235.304C272.91 235.304 260.967 232.281 249.644 226.454L249.594 226.429L249.511 226.387L249.429 226.342L249.379 226.315H249.378C237.801 220.148 228.168 211.262 220.456 200.003L220.438 199.978L220.353 199.863L220.274 199.742L220.229 199.671V199.67C212.269 187.538 208.342 173.884 208.342 159.1C208.342 137.108 216.229 118.234 232.054 103.558L232.07 103.543L232.086 103.528L233.443 102.292L233.484 102.255C248.43 88.9527 265.944 81.9763 285.556 81.9761ZM284.364 139.073C279.734 139.073 275.052 140.501 269.863 144.542L269.359 144.942C266.751 147.046 264.155 150.704 264.155 159.707C264.156 167.89 266.541 171.443 269.38 173.718C275.438 178.217 280.177 179.49 283.941 179.49C287.55 179.49 292.466 178.2 299.029 173.228C300.681 171.977 301.991 170.475 302.93 168.384C303.891 166.244 304.572 163.24 304.572 158.857C304.572 150.392 302.292 146.977 300.131 145.13L299.701 144.781C294.331 140.623 289.383 139.073 284.364 139.073Z" fill="white" stroke="black" stroke-width="9.62311"/>
<path d="M515.798 81.9761C536.036 81.9761 553.976 89.4083 569.087 103.573L569.098 103.583L569.108 103.593L570.464 104.879L570.509 104.922C585.266 119.294 592.554 137.628 592.554 158.871C592.554 174.073 588.569 188.06 580.409 200.398L580.354 200.487L580.293 200.573L580.276 200.598L580.275 200.597C572.56 212.042 562.858 220.957 551.108 226.868L550.981 226.944L550.786 227.032C539.621 232.507 527.834 235.304 515.568 235.304C503.152 235.304 491.209 232.281 479.886 226.454L479.836 226.429L479.753 226.387L479.671 226.342L479.621 226.315H479.62C468.043 220.148 458.411 211.262 450.698 200.003L450.68 199.978L450.595 199.863L450.517 199.742L450.472 199.671V199.67C442.511 187.538 438.584 173.884 438.584 159.1C438.584 137.108 446.472 118.234 462.296 103.558L462.312 103.543L462.328 103.528L463.686 102.292L463.727 102.255C478.673 88.9527 496.186 81.9763 515.798 81.9761ZM514.606 139.073C509.976 139.073 505.294 140.501 500.105 144.542L499.602 144.942C496.993 147.046 494.397 150.704 494.397 159.707C494.398 167.89 496.783 171.443 499.622 173.718C505.68 178.217 510.419 179.49 514.184 179.49C517.792 179.49 522.708 178.2 529.271 173.228C530.923 171.977 532.233 170.475 533.172 168.384C534.133 166.244 534.814 163.24 534.814 158.857C534.814 150.392 532.534 146.977 530.373 145.13L529.943 144.781C524.573 140.623 519.625 139.073 514.606 139.073Z" fill="white" stroke="black" stroke-width="9.62311"/>
<path d="M379.645 73.8337C386.068 69.3958 393.502 67.9211 400.073 67.9837C406.578 68.0457 414.004 69.5248 420.4 73.9474C426.918 78.455 431.91 85.7104 433.903 96.4007C438.492 121.004 437.912 159.004 434.256 192.587C432.689 206.985 427.206 216.159 420.139 221.611C413.192 226.97 405.319 228.266 399.689 228.139C394.265 228.016 386.117 226.746 378.88 221.502C371.457 216.123 365.609 207.01 364.23 192.456C361.047 158.866 361.004 120.867 365.938 96.2745C368.077 85.6184 373.117 78.345 379.645 73.8337Z" fill="white" stroke="black" stroke-width="9.62311"/>
<path d="M618.012 232.601C608.346 230.632 598.742 224.701 594.657 214.73C592.66 209.856 591.918 203.574 591.845 197.034C591.772 190.397 592.391 183.056 593.395 175.814C595.398 161.374 599.011 146.835 602.156 138.343C605.043 130.545 608.801 119.316 616.06 110.896C619.781 106.579 624.494 102.891 630.555 100.678C636.613 98.4665 643.724 97.8357 652.085 99.1905C666.094 101.461 676.38 104.764 683.706 108.632C691.003 112.484 695.7 117.085 697.88 122.101C701.032 129.354 700.499 137.41 697.399 143.452C694.276 149.541 687.965 154.338 679.868 152.566C675.684 151.65 672.998 152.129 671.374 153.112C669.876 154.019 668.364 155.917 667.743 160.057C666.44 168.743 664.544 181.63 661.307 193.94C658.135 206.002 653.419 218.592 645.867 225.875C638.624 232.859 627.631 234.559 618.012 232.601Z" fill="white" stroke="black" stroke-width="9.62311"/>
<path d="M342.98 316.793C348.33 314.288 356.031 312.051 364.975 313.542C373.76 315.006 380.046 318.918 383.956 325.041C387.575 330.707 388.784 337.703 388.873 344.983C388.874 345.004 388.876 345.022 388.877 345.037C388.88 345.08 388.881 345.116 388.882 345.143C388.884 345.194 388.885 345.239 388.885 345.271C388.886 345.304 388.886 345.337 388.886 345.366C388.886 345.397 388.886 345.428 388.886 345.459C388.886 345.521 388.886 345.591 388.885 345.668C388.885 345.746 388.883 345.833 388.882 345.932C388.882 345.965 388.882 346.014 388.882 346.079C388.882 346.209 388.881 346.402 388.88 346.654C388.879 347.156 388.877 347.893 388.873 348.835C388.865 350.719 388.85 353.422 388.823 356.699C388.77 363.252 388.67 372.107 388.481 381.311C388.292 390.508 388.013 400.086 387.602 408.071C387.203 415.824 386.659 422.672 385.802 425.989C382.387 439.218 372.175 446.453 359.248 447.851C353.605 448.462 346.989 446.13 342.46 444.18C340.053 443.144 337.942 442.082 336.435 441.281C336.247 441.181 336.069 441.083 335.9 440.991C335.786 441.028 335.668 441.067 335.545 441.105C334.053 441.575 331.97 442.201 329.599 442.824C324.991 444.035 318.807 445.373 313.765 445.313L313.721 445.312L313.677 445.311C299.982 444.897 283.332 438.774 271.458 425.785C259.436 412.635 254.071 396.909 254.276 379.685C254.484 362.198 260.959 346.837 273.258 334.174L273.274 334.159L273.289 334.144L274.361 333.06L274.379 333.041L274.396 333.024C286.228 321.303 300.128 314.565 315.842 314.752C321.75 314.823 327.462 315.908 332.81 318.189L333.326 318.413L333.808 318.633C334.805 319.097 335.974 319.699 336.972 320.227C338.443 319.216 340.477 317.964 342.98 316.793ZM321.842 361.913C311.39 361.913 302.917 370.387 302.917 380.839C302.917 387.368 305.134 391.97 308.341 394.963C311.6 398.006 316.292 399.764 321.842 399.764C332.294 399.764 340.767 391.29 340.767 380.838C340.767 374.309 338.55 369.707 335.343 366.714C332.084 363.671 327.392 361.913 321.842 361.913ZM385.125 345.909L388.167 346.01C388.152 345.982 388.136 345.955 388.12 345.927L385.125 345.909Z" fill="white" stroke="black" stroke-width="9.62311"/>
<path d="M433.516 296.51C442.395 296.507 451.436 300.399 456.803 307.748C460.298 312.536 463.009 318.652 465.127 325.266C481.81 323.82 496.604 336.053 498.27 352.766C499.886 368.987 488.546 383.511 472.663 386.067C472.689 388.009 473.064 388.978 473.36 389.461C473.645 389.928 474.121 390.385 475.236 390.834C476.458 391.325 478.119 391.677 480.477 392.025C482.62 392.341 485.597 392.684 488.436 393.175C498.159 394.857 504.057 402.303 506.278 410.478C508.478 418.578 507.345 428.121 502.461 435.53C495.864 445.538 482.577 450.333 450.934 449.947C441.345 449.83 433.577 447.744 427.306 444.129C421.031 440.512 416.527 435.522 413.233 430.009C406.788 419.224 404.779 405.977 403.051 396.578C402.695 394.64 402.366 392.465 402.069 390.106C391.374 386.194 383.283 376.452 382.077 364.347C380.647 350.005 389.342 336.996 402.352 332.402C403.705 323.536 405.921 315.268 409.532 309.529C415.205 300.513 424.525 296.513 433.516 296.51Z" fill="white" stroke="black" stroke-width="9.62311"/>
<path d="M539.303 301.983C545.845 298.354 552.984 297.788 559.12 298.649C565.188 299.5 571.939 301.873 577.351 307.027C582.851 312.265 586.534 319.963 587.069 330.581C587.226 333.683 587.276 336.971 587.239 340.408C601.139 340.589 617.141 342.448 629.012 349.023C644 357.326 649.749 370.783 650.787 385.821C651.804 400.549 648.364 417.336 644.693 433.363C641.674 446.539 637.621 455.066 631.939 460.056C625.996 465.275 619.14 465.895 612.648 465.448C605.66 464.968 597.4 464.042 591.597 457.726C585.836 451.456 583.587 441.138 584.512 425.103L584.514 425.058L584.518 425.014C585.122 417.102 585.723 411.405 585.807 406.963C585.895 402.362 585.337 400.616 584.8 399.882C584.029 398.828 582.447 398.117 579.843 398.823C579.313 398.967 578.822 399.264 578.297 400.426C577.691 401.766 577.291 403.782 577.065 406.551C576.841 409.312 576.824 412.19 576.717 415.375C576.616 418.383 576.431 421.673 575.769 424.562C572.604 438.379 566.481 446.715 559.25 451.249C552.112 455.724 544.579 456.066 539.305 455.251C534.246 454.47 526.803 452.216 520.715 446.154C514.493 439.958 510.257 430.353 510.747 416.044C511.884 382.847 516.437 345.73 523.935 322.311C527.17 312.207 532.669 305.664 539.303 301.983Z" fill="white" stroke="black" stroke-width="9.62311"/>
<path d="M159.371 315.073C165.077 314.485 172.063 314.067 179.376 314.081C186.677 314.094 194.397 314.538 201.538 315.707C208.611 316.865 215.465 318.789 220.799 321.969C231.672 328.451 239.46 336.781 244.039 346.981C248.602 357.147 249.811 368.793 248.18 381.667C245.838 400.14 233.603 425.4 204.92 431.261C198.595 432.554 192.67 433.11 187.239 433.142C186.331 445.72 181.88 454.138 175.829 459.46C169.803 464.759 162.732 466.515 157.476 466.821L156.972 466.846C151.876 467.059 144.137 466.361 137.006 461.863C129.682 457.243 123.644 449.018 121.474 435.466C116.493 404.355 114.17 368.925 117.298 345.676C118.653 335.607 123.532 329.078 129.353 324.817C134.965 320.708 141.356 318.794 145.503 317.527C145.866 317.416 146.209 317.311 146.539 317.209C149.094 316.418 153.788 315.648 159.371 315.073ZM181.986 354.857C171.534 354.857 163.061 363.33 163.061 373.782C163.061 380.311 165.278 384.914 168.484 387.907C171.744 390.95 176.436 392.707 181.986 392.707C192.438 392.707 200.912 384.234 200.912 373.782C200.912 367.253 198.694 362.65 195.487 359.657C192.228 356.614 187.536 354.857 181.986 354.857Z" fill="white" stroke="black" stroke-width="9.62311"/>
<defs>
<filter id="filter0_dii_5255_27791" x="21.8657" y="15.6646" width="735.214" height="577.573" filterUnits="userSpaceOnUse" color-interpolation-filters="sRGB">
<feFlood flood-opacity="0" result="BackgroundImageFix"/>
<feColorMatrix in="SourceAlpha" type="matrix" values="0 0 0 0 0 0 0 0 0 0 0 0 0 0 0 0 0 0 127 0" result="hardAlpha"/>
<feOffset dx="3.2077" dy="2.56616"/>
<feGaussianBlur stdDeviation="11.8707"/>
<feComposite in2="hardAlpha" operator="out"/>
<feColorMatrix type="matrix" values="0 0 0 0 0 0 0 0 0 0 0 0 0 0 0 0 0 0 0.46 0"/>
<feBlend mode="normal" in2="BackgroundImageFix" result="effect1_dropShadow_5255_27791"/>
<feBlend mode="normal" in="SourceGraphic" in2="effect1_dropShadow_5255_27791" result="shape"/>
<feColorMatrix in="SourceAlpha" type="matrix" values="0 0 0 0 0 0 0 0 0 0 0 0 0 0 0 0 0 0 127 0" result="hardAlpha"/>
<feOffset dx="-3.2077" dy="-1.28308"/>
<feGaussianBlur stdDeviation="2.85485"/>
<feComposite in2="hardAlpha" operator="arithmetic" k2="-1" k3="1"/>
<feColorMatrix type="matrix" values="0 0 0 0 0.682353 0 0 0 0 0.465359 0 0 0 0 0.0313726 0 0 0 0.48 0"/>
<feBlend mode="normal" in2="shape" result="effect2_innerShadow_5255_27791"/>
<feColorMatrix in="SourceAlpha" type="matrix" values="0 0 0 0 0 0 0 0 0 0 0 0 0 0 0 0 0 0 127 0" result="hardAlpha"/>
<feOffset dx="-1.92462" dy="-0.64154"/>
<feGaussianBlur stdDeviation="0.898157"/>
<feComposite in2="hardAlpha" operator="arithmetic" k2="-1" k3="1"/>
<feColorMatrix type="matrix" values="0 0 0 0 0.682353 0 0 0 0 0.465359 0 0 0 0 0.0313726 0 0 0 0.48 0"/>
<feBlend mode="normal" in2="effect2_innerShadow_5255_27791" result="effect3_innerShadow_5255_27791"/>
</filter>
<linearGradient id="paint0_linear_5255_27791" x1="386.265" y1="36.8398" x2="386.265" y2="566.93" gradientUnits="userSpaceOnUse">
<stop stop-color="#E4F05F"/>
<stop offset="1" stop-color="#658305"/>
</linearGradient>
<linearGradient id="paint1_linear_5255_27791" x1="394.308" y1="43.8535" x2="394.308" y2="517.664" gradientUnits="userSpaceOnUse">
<stop stop-color="white" stop-opacity="0"/>
<stop offset="1" stop-color="#B8C919"/>
</linearGradient>
<linearGradient id="paint2_linear_5255_27791" x1="394.308" y1="43.8535" x2="394.308" y2="517.664" gradientUnits="userSpaceOnUse">
<stop stop-color="white" stop-opacity="0"/>
<stop offset="1" stop-color="#B8C919"/>
</linearGradient>
<linearGradient id="paint3_linear_5255_27791" x1="394.308" y1="43.8535" x2="394.308" y2="517.664" gradientUnits="userSpaceOnUse">
<stop stop-color="white" stop-opacity="0"/>
<stop offset="1" stop-color="#B8C919"/>
</linearGradient>
<linearGradient id="paint4_linear_5255_27791" x1="394.308" y1="43.8535" x2="394.308" y2="517.664" gradientUnits="userSpaceOnUse">
<stop stop-color="white" stop-opacity="0"/>
<stop offset="1" stop-color="#B8C919"/>
</linearGradient>
<linearGradient id="paint5_linear_5255_27791" x1="394.308" y1="43.8535" x2="394.308" y2="517.664" gradientUnits="userSpaceOnUse">
<stop stop-color="white" stop-opacity="0"/>
<stop offset="1" stop-color="#B8C919"/>
</linearGradient>
<linearGradient id="paint6_linear_5255_27791" x1="394.308" y1="43.8535" x2="394.308" y2="517.664" gradientUnits="userSpaceOnUse">
<stop stop-color="white" stop-opacity="0"/>
<stop offset="1" stop-color="#B8C919"/>
</linearGradient>
<linearGradient id="paint7_linear_5255_27791" x1="394.308" y1="43.8535" x2="394.308" y2="517.664" gradientUnits="userSpaceOnUse">
<stop stop-color="white" stop-opacity="0"/>
<stop offset="1" stop-color="#B8C919"/>
</linearGradient>
<linearGradient id="paint8_linear_5255_27791" x1="394.308" y1="43.8535" x2="394.308" y2="517.664" gradientUnits="userSpaceOnUse">
<stop stop-color="white" stop-opacity="0"/>
<stop offset="1" stop-color="#B8C919"/>
</linearGradient>
<linearGradient id="paint9_linear_5255_27791" x1="394.308" y1="43.8535" x2="394.308" y2="517.664" gradientUnits="userSpaceOnUse">
<stop stop-color="white" stop-opacity="0"/>
<stop offset="1" stop-color="#B8C919"/>
</linearGradient>
<linearGradient id="paint10_linear_5255_27791" x1="394.308" y1="43.8535" x2="394.308" y2="517.664" gradientUnits="userSpaceOnUse">
<stop stop-color="white" stop-opacity="0"/>
<stop offset="1" stop-color="#B8C919"/>
</linearGradient>
<linearGradient id="paint11_linear_5255_27791" x1="394.308" y1="43.8535" x2="394.308" y2="517.664" gradientUnits="userSpaceOnUse">
<stop stop-color="white" stop-opacity="0"/>
<stop offset="1" stop-color="#B8C919"/>
</linearGradient>
<linearGradient id="paint12_linear_5255_27791" x1="394.308" y1="43.8535" x2="394.308" y2="517.664" gradientUnits="userSpaceOnUse">
<stop stop-color="white" stop-opacity="0"/>
<stop offset="1" stop-color="#B8C919"/>
</linearGradient>
<linearGradient id="paint13_linear_5255_27791" x1="394.308" y1="43.8535" x2="394.308" y2="517.664" gradientUnits="userSpaceOnUse">
<stop stop-color="white" stop-opacity="0"/>
<stop offset="1" stop-color="#B8C919"/>
</linearGradient>
<linearGradient id="paint14_linear_5255_27791" x1="394.308" y1="43.8535" x2="394.308" y2="517.664" gradientUnits="userSpaceOnUse">
<stop stop-color="white" stop-opacity="0"/>
<stop offset="1" stop-color="#B8C919"/>
</linearGradient>
<linearGradient id="paint15_linear_5255_27791" x1="394.308" y1="43.8535" x2="394.308" y2="517.664" gradientUnits="userSpaceOnUse">
<stop stop-color="white" stop-opacity="0"/>
<stop offset="1" stop-color="#B8C919"/>
</linearGradient>
<linearGradient id="paint16_linear_5255_27791" x1="394.308" y1="43.8535" x2="394.308" y2="517.664" gradientUnits="userSpaceOnUse">
<stop stop-color="white" stop-opacity="0"/>
<stop offset="1" stop-color="#B8C919"/>
</linearGradient>
<linearGradient id="paint17_linear_5255_27791" x1="394.308" y1="43.8535" x2="394.308" y2="517.664" gradientUnits="userSpaceOnUse">
<stop stop-color="white" stop-opacity="0"/>
<stop offset="1" stop-color="#B8C919"/>
</linearGradient>
</defs>
</svg>
