<svg width="197" height="80" viewBox="0 0 197 80" fill="none" xmlns="http://www.w3.org/2000/svg">
<rect width="197" height="80" rx="14" fill="#424342"/>
<path d="M49.8401 28.842C51.387 28.7948 53.7492 29.3731 55.1319 30.1927C56.2148 30.8745 57.5464 31.8238 58.2387 32.9062C58.4073 33.1698 57.2221 34.0117 56.9892 34.2069C56.2157 34.864 55.5583 35.6465 55.0442 36.5216C53.1241 39.7504 53.399 44.2065 55.7062 47.1468C56.7659 48.4972 58.0017 49.1275 59.4475 49.982C59.3813 50.3702 59.128 51.201 58.9661 51.5865C57.6883 54.5301 55.8465 57.8606 53.4623 60.0358C50.8502 62.4189 48.0913 61.3264 45.3332 60.0651C43.0177 59.0061 40.4758 59.9546 38.283 60.9279C37.6276 61.1787 36.9899 61.3889 36.2847 61.4459C34.953 61.5557 33.6338 61.1206 32.6287 60.2401C31.8378 59.5601 30.6696 58.1695 29.9657 57.3768C29.1992 56.5136 28.5139 55.1254 27.9408 54.1134C26.1208 50.8991 24.9518 47.337 24.6254 43.6517C24.3081 39.5651 24.9117 35.7287 27.6819 32.5142C29.5185 30.3831 32.6023 29.0483 35.4218 29.0316C36.2764 29.0266 37.2048 29.2472 38.0273 29.4811C39.3966 29.8704 41.0987 30.9642 42.5151 30.8835C43.5602 30.824 45.067 30.0058 46.09 29.634C47.5366 29.1082 48.3539 28.9523 49.8401 28.842Z" fill="white"/>
<path d="M49.9756 18.5379C50.2131 18.496 50.3096 18.4866 50.4987 18.6121C50.6389 18.8616 50.5965 19.4675 50.5867 19.7548C50.4872 22.6562 49.0582 25.2664 46.6708 26.9097C45.6149 27.6366 44.1182 28.3743 42.7894 28.3213C42.5831 28.3223 42.2717 28.3506 42.1023 28.261C42.0318 28.1497 42.0055 28.0133 41.9994 27.881C41.9098 25.9201 42.5541 23.6467 43.8237 22.1305C44.1165 21.7807 44.5246 21.4778 44.8273 21.1804C46.0135 20.0154 47.1672 19.2736 48.795 18.8216C49.1756 18.7159 49.5685 18.5729 49.9756 18.5379Z" fill="white"/>
<path d="M74.2841 20.7514H77.7287C80.7685 20.7514 82.5653 22.6477 82.5653 25.8722C82.5653 29.1037 80.7756 31 77.7287 31H74.2841V20.7514ZM75.5625 21.902V29.8494H77.6435C79.9659 29.8494 81.2585 28.429 81.2585 25.8864C81.2585 23.3224 79.973 21.902 77.6435 21.902H75.5625ZM86.7347 31.1278C84.6892 31.1278 83.3114 29.6577 83.3114 27.3068C83.3114 24.9489 84.6892 23.4858 86.7347 23.4858C88.773 23.4858 90.1509 24.9489 90.1509 27.3068C90.1509 29.6577 88.773 31.1278 86.7347 31.1278ZM86.7347 30.0412C88.0415 30.0412 88.8938 29.0469 88.8938 27.3068C88.8938 25.5668 88.0415 24.5724 86.7347 24.5724C85.4278 24.5724 84.5685 25.5668 84.5685 27.3068C84.5685 29.0469 85.4278 30.0412 86.7347 30.0412ZM100.506 23.6136L98.4466 31H97.1895L95.5205 25.2827H95.4921L93.8301 31H92.573L90.5063 23.6136H91.7349L93.2122 29.6222H93.2406L94.9097 23.6136H96.1028L97.779 29.6222H97.8074L99.2847 23.6136H100.506ZM101.231 31V23.6136H102.396V24.7926H102.424C102.836 23.9972 103.624 23.4858 104.768 23.4858C106.387 23.4858 107.325 24.5298 107.325 26.206V31H106.089V26.4261C106.089 25.233 105.528 24.5795 104.391 24.5795C103.227 24.5795 102.467 25.4034 102.467 26.6534V31H101.231ZM108.674 31V20.7514H109.91V31H108.674ZM114.349 31.1278C112.304 31.1278 110.926 29.6577 110.926 27.3068C110.926 24.9489 112.304 23.4858 114.349 23.4858C116.388 23.4858 117.766 24.9489 117.766 27.3068C117.766 29.6577 116.388 31.1278 114.349 31.1278ZM114.349 30.0412C115.656 30.0412 116.509 29.0469 116.509 27.3068C116.509 25.5668 115.656 24.5724 114.349 24.5724C113.043 24.5724 112.183 25.5668 112.183 27.3068C112.183 29.0469 113.043 30.0412 114.349 30.0412ZM121.161 30.0767C122.326 30.0767 123.22 29.2599 123.22 28.1946V27.5909L121.246 27.7116C120.252 27.7756 119.684 28.2159 119.684 28.9119C119.684 29.6151 120.273 30.0767 121.161 30.0767ZM120.884 31.1278C119.414 31.1278 118.426 30.2401 118.426 28.9119C118.426 27.6477 119.399 26.8523 121.104 26.7528L123.22 26.6321V26.0142C123.22 25.1122 122.624 24.5724 121.601 24.5724C120.649 24.5724 120.053 25.0199 119.897 25.7443H118.703C118.789 24.4659 119.882 23.4858 121.63 23.4858C123.363 23.4858 124.456 24.4233 124.456 25.8935V31H123.284V29.7287H123.256C122.816 30.5739 121.878 31.1278 120.884 31.1278ZM128.533 31.1278C126.651 31.1278 125.373 29.6222 125.373 27.3068C125.373 24.9915 126.644 23.4858 128.505 23.4858C129.563 23.4858 130.415 24.0043 130.856 24.8139H130.884V20.7514H132.12V31H130.941V29.75H130.92C130.444 30.6023 129.599 31.1278 128.533 31.1278ZM128.768 24.5724C127.461 24.5724 126.637 25.6378 126.637 27.3068C126.637 28.983 127.461 30.0412 128.768 30.0412C130.039 30.0412 130.891 28.9616 130.891 27.3068C130.891 25.6591 130.039 24.5724 128.768 24.5724ZM139.251 31.1278C137.206 31.1278 135.828 29.6577 135.828 27.3068C135.828 24.9489 137.206 23.4858 139.251 23.4858C141.289 23.4858 142.667 24.9489 142.667 27.3068C142.667 29.6577 141.289 31.1278 139.251 31.1278ZM139.251 30.0412C140.558 30.0412 141.41 29.0469 141.41 27.3068C141.41 25.5668 140.558 24.5724 139.251 24.5724C137.944 24.5724 137.085 25.5668 137.085 27.3068C137.085 29.0469 137.944 30.0412 139.251 30.0412ZM143.626 31V23.6136H144.791V24.7926H144.82C145.232 23.9972 146.02 23.4858 147.163 23.4858C148.783 23.4858 149.72 24.5298 149.72 26.206V31H148.484V26.4261C148.484 25.233 147.923 24.5795 146.787 24.5795C145.622 24.5795 144.862 25.4034 144.862 26.6534V31H143.626ZM154.096 21.831H155.332V23.6136H156.766V24.6293H155.332V29.0185C155.332 29.6932 155.616 29.9986 156.248 29.9986C156.39 29.9986 156.674 29.9773 156.759 29.9631V31C156.61 31.0355 156.269 31.0568 155.978 31.0568C154.621 31.0568 154.096 30.5028 154.096 29.0824V24.6293H152.995V23.6136H154.096V21.831ZM157.86 31V20.7514H159.096V24.7926H159.124C159.536 23.9688 160.346 23.4858 161.468 23.4858C163.088 23.4858 164.068 24.5795 164.068 26.2273V31H162.832V26.4545C162.832 25.2827 162.242 24.5795 161.085 24.5795C159.856 24.5795 159.096 25.4176 159.096 26.696V31H157.86ZM168.308 24.5582C167.15 24.5582 166.341 25.446 166.262 26.6747H170.275C170.247 25.4389 169.473 24.5582 168.308 24.5582ZM170.247 28.8835H171.461C171.248 30.1761 169.998 31.1278 168.386 31.1278C166.27 31.1278 164.984 29.6577 164.984 27.3352C164.984 25.0412 166.291 23.4858 168.329 23.4858C170.325 23.4858 171.554 24.9347 171.554 27.1719V27.6406H166.255V27.7116C166.255 29.125 167.086 30.0554 168.414 30.0554C169.352 30.0554 170.041 29.5795 170.247 28.8835Z" fill="white"/>
<path d="M89.3322 56L87.7302 51.4372H81.3887L79.7867 56H77.6987L83.5762 40.0578H85.5427L91.4203 56H89.3322ZM84.5263 42.4773L81.9742 49.7468H87.1447L84.5926 42.4773H84.5263ZM98.0716 44.3112C100.999 44.3112 102.988 46.6534 102.988 50.2551C102.988 53.8567 101.01 56.1989 98.1158 56.1989C96.4696 56.1989 95.1439 55.3924 94.4589 54.1329H94.4147V59.8336H92.4924V44.5101H94.3153V46.4545H94.3595C95.0665 45.1619 96.4033 44.3112 98.0716 44.3112ZM97.696 54.5085C99.7398 54.5085 101.021 52.8624 101.021 50.2551C101.021 47.6588 99.7398 46.0016 97.696 46.0016C95.7294 46.0016 94.4037 47.703 94.4037 50.2551C94.4037 52.8182 95.7294 54.5085 97.696 54.5085ZM110.059 44.3112C112.987 44.3112 114.975 46.6534 114.975 50.2551C114.975 53.8567 112.998 56.1989 110.103 56.1989C108.457 56.1989 107.131 55.3924 106.446 54.1329H106.402V59.8336H104.48V44.5101H106.303V46.4545H106.347C107.054 45.1619 108.391 44.3112 110.059 44.3112ZM109.683 54.5085C111.727 54.5085 113.009 52.8624 113.009 50.2551C113.009 47.6588 111.727 46.0016 109.683 46.0016C107.717 46.0016 106.391 47.703 106.391 50.2551C106.391 52.8182 107.717 54.5085 109.683 54.5085ZM120.191 51.614H122.191C122.378 53.3374 124.014 54.4754 126.289 54.4754C128.444 54.4754 130.013 53.3374 130.013 51.7686C130.013 50.4208 129.074 49.5922 126.93 49.0398L124.886 48.5095C121.948 47.7582 120.644 46.4656 120.644 44.3002C120.644 41.6487 122.964 39.7926 126.278 39.7926C129.449 39.7926 131.747 41.6708 131.836 44.3444H129.847C129.67 42.6319 128.289 41.5824 126.212 41.5824C124.146 41.5824 122.71 42.654 122.71 44.2118C122.71 45.416 123.594 46.1342 125.759 46.6976L127.427 47.1395C130.731 47.9681 132.068 49.2386 132.068 51.5256C132.068 54.4422 129.77 56.2652 126.102 56.2652C122.721 56.2652 120.379 54.4312 120.191 51.614ZM134.255 41.7371H136.178V44.5101H138.41V46.09H136.178V52.9176C136.178 53.9672 136.62 54.4422 137.603 54.4422C137.824 54.4422 138.266 54.4091 138.398 54.387V56C138.166 56.0552 137.636 56.0884 137.183 56.0884C135.073 56.0884 134.255 55.2266 134.255 53.017V46.09H132.543V44.5101H134.255V41.7371ZM144.442 56.1989C141.26 56.1989 139.117 53.9119 139.117 50.2551C139.117 46.5871 141.26 44.3112 144.442 44.3112C147.613 44.3112 149.756 46.5871 149.756 50.2551C149.756 53.9119 147.613 56.1989 144.442 56.1989ZM144.442 54.5085C146.475 54.5085 147.801 52.9618 147.801 50.2551C147.801 47.5483 146.475 46.0016 144.442 46.0016C142.409 46.0016 141.073 47.5483 141.073 50.2551C141.073 52.9618 142.409 54.5085 144.442 54.5085ZM151.248 56V44.5101H153.06V46.3883H153.104C153.48 45.1177 154.54 44.3112 155.888 44.3112C156.22 44.3112 156.507 44.3665 156.662 44.3886V46.2557C156.507 46.2004 156.098 46.1452 155.634 46.1452C154.143 46.1452 153.171 47.2169 153.171 48.8409V56H151.248ZM161.833 45.9795C160.032 45.9795 158.772 47.3605 158.651 49.2718H164.893C164.849 47.3494 163.644 45.9795 161.833 45.9795ZM164.849 52.7077H166.738C166.406 54.7184 164.462 56.1989 161.954 56.1989C158.662 56.1989 156.662 53.9119 156.662 50.2992C156.662 46.7307 158.695 44.3112 161.866 44.3112C164.97 44.3112 166.881 46.565 166.881 50.0451V50.7743H158.64V50.8848C158.64 53.0833 159.932 54.5306 161.998 54.5306C163.457 54.5306 164.528 53.7904 164.849 52.7077Z" fill="white"/>
</svg>
